<mxfile host="app.diagrams.net" modified="2024-03-06T16:12:40.986Z" agent="Mozilla/5.0 (Windows NT 10.0; Win64; x64; rv:123.0) Gecko/20100101 Firefox/123.0" etag="15FVp8781Fj0YdhaWIDQ" version="24.0.2" type="github">
  <diagram name="Strona-1" id="vIstyrCSbPjeXbH_98aV">
    <mxGraphModel dx="1195" dy="1814" grid="1" gridSize="10" guides="1" tooltips="1" connect="1" arrows="1" fold="1" page="1" pageScale="1" pageWidth="827" pageHeight="1169" math="0" shadow="0">
      <root>
        <mxCell id="0" />
        <mxCell id="1" parent="0" />
        <mxCell id="c8v6GoFmHwRA6XCjn_m3-38" value="Product" style="swimlane;fontStyle=0;childLayout=stackLayout;horizontal=1;startSize=26;horizontalStack=0;resizeParent=1;resizeParentMax=0;resizeLast=0;collapsible=1;marginBottom=0;align=center;fontSize=14;" vertex="1" parent="1">
          <mxGeometry x="176" y="-560" width="200" height="200" as="geometry">
            <mxRectangle x="20" y="-10" width="90" height="30" as="alternateBounds" />
          </mxGeometry>
        </mxCell>
        <mxCell id="c8v6GoFmHwRA6XCjn_m3-39" value="&lt;div&gt;ID&lt;span style=&quot;white-space: pre;&quot;&gt;&#x9;&lt;/span&gt;&lt;span style=&quot;white-space: pre;&quot;&gt;&#x9;&lt;/span&gt;&lt;span style=&quot;white-space: pre;&quot;&gt;&#x9;&lt;/span&gt;int&lt;span style=&quot;white-space: pre;&quot;&gt;&#x9;&lt;span style=&quot;white-space: pre;&quot;&gt;&#x9;&lt;/span&gt;&lt;span style=&quot;white-space: pre;&quot;&gt;&#x9;&lt;/span&gt;&lt;span style=&quot;white-space: pre;&quot;&gt;&#x9;&lt;/span&gt;PK&lt;/span&gt;&lt;/div&gt;&lt;div&gt;&lt;br&gt;&lt;/div&gt;&lt;div&gt;&lt;br&gt;&lt;/div&gt;" style="text;strokeColor=none;fillColor=none;spacingLeft=4;spacingRight=4;overflow=hidden;rotatable=0;points=[[0,0.5],[1,0.5]];portConstraint=eastwest;fontSize=12;whiteSpace=wrap;html=1;" vertex="1" parent="c8v6GoFmHwRA6XCjn_m3-38">
          <mxGeometry y="26" width="200" height="24" as="geometry" />
        </mxCell>
        <mxCell id="c8v6GoFmHwRA6XCjn_m3-40" value="&lt;div&gt;Name&lt;span style=&quot;white-space: pre;&quot;&gt;&#x9;&lt;/span&gt;&lt;span style=&quot;white-space: pre;&quot;&gt;&#x9;&lt;/span&gt;string&lt;span style=&quot;white-space: pre;&quot;&gt;&#x9;&lt;/span&gt;&lt;span style=&quot;white-space: pre;&quot;&gt;&#x9;&lt;/span&gt;&lt;/div&gt;&lt;div&gt;&lt;br&gt;&lt;/div&gt;&lt;div&gt;&lt;br&gt;&lt;/div&gt;" style="text;strokeColor=none;fillColor=none;spacingLeft=4;spacingRight=4;overflow=hidden;rotatable=0;points=[[0,0.5],[1,0.5]];portConstraint=eastwest;fontSize=12;whiteSpace=wrap;html=1;" vertex="1" parent="c8v6GoFmHwRA6XCjn_m3-38">
          <mxGeometry y="50" width="200" height="30" as="geometry" />
        </mxCell>
        <mxCell id="c8v6GoFmHwRA6XCjn_m3-41" value="&lt;div&gt;Price&lt;span style=&quot;white-space: pre;&quot;&gt;&#x9;&lt;/span&gt;&lt;span style=&quot;white-space: pre;&quot;&gt;&#x9;money&lt;/span&gt;&lt;span style=&quot;white-space: pre;&quot;&gt;&#x9;&lt;/span&gt;&lt;/div&gt;&lt;div&gt;&lt;br&gt;&lt;/div&gt;" style="text;strokeColor=none;fillColor=none;spacingLeft=4;spacingRight=4;overflow=hidden;rotatable=0;points=[[0,0.5],[1,0.5]];portConstraint=eastwest;fontSize=12;whiteSpace=wrap;html=1;" vertex="1" parent="c8v6GoFmHwRA6XCjn_m3-38">
          <mxGeometry y="80" width="200" height="30" as="geometry" />
        </mxCell>
        <mxCell id="c8v6GoFmHwRA6XCjn_m3-43" value="Image&lt;span style=&quot;white-space: pre;&quot;&gt;&#x9;&lt;/span&gt;&lt;span style=&quot;white-space: pre;&quot;&gt;&#x9;&lt;/span&gt;varchar(30)&lt;span style=&quot;white-space: pre;&quot;&gt;&#x9;&lt;/span&gt;" style="text;strokeColor=none;fillColor=none;spacingLeft=4;spacingRight=4;overflow=hidden;rotatable=0;points=[[0,0.5],[1,0.5]];portConstraint=eastwest;fontSize=12;whiteSpace=wrap;html=1;" vertex="1" parent="c8v6GoFmHwRA6XCjn_m3-38">
          <mxGeometry y="110" width="200" height="30" as="geometry" />
        </mxCell>
        <mxCell id="c8v6GoFmHwRA6XCjn_m3-44" value="IsActive&lt;span style=&quot;white-space: pre;&quot;&gt;&#x9;&lt;/span&gt;&lt;span style=&quot;white-space: pre;&quot;&gt;&#x9;&lt;/span&gt;bool&lt;span style=&quot;white-space: pre;&quot;&gt;&#x9;&lt;/span&gt;" style="text;strokeColor=none;fillColor=none;spacingLeft=4;spacingRight=4;overflow=hidden;rotatable=0;points=[[0,0.5],[1,0.5]];portConstraint=eastwest;fontSize=12;whiteSpace=wrap;html=1;" vertex="1" parent="c8v6GoFmHwRA6XCjn_m3-38">
          <mxGeometry y="140" width="200" height="30" as="geometry" />
        </mxCell>
        <mxCell id="c8v6GoFmHwRA6XCjn_m3-45" value="&lt;div&gt;GroupID&lt;span style=&quot;white-space: pre;&quot;&gt;&#x9;&lt;/span&gt;int?&lt;span style=&quot;white-space: pre;&quot;&gt;&#x9;&lt;/span&gt;&lt;/div&gt;&lt;div&gt;&lt;br&gt;&lt;/div&gt;" style="text;strokeColor=none;fillColor=none;spacingLeft=4;spacingRight=4;overflow=hidden;rotatable=0;points=[[0,0.5],[1,0.5]];portConstraint=eastwest;fontSize=12;whiteSpace=wrap;html=1;" vertex="1" parent="c8v6GoFmHwRA6XCjn_m3-38">
          <mxGeometry y="170" width="200" height="30" as="geometry" />
        </mxCell>
        <mxCell id="c8v6GoFmHwRA6XCjn_m3-46" value="ProductGroup" style="swimlane;fontStyle=0;childLayout=stackLayout;horizontal=1;startSize=26;horizontalStack=0;resizeParent=1;resizeParentMax=0;resizeLast=0;collapsible=1;marginBottom=0;align=center;fontSize=14;" vertex="1" parent="1">
          <mxGeometry x="170" y="-320" width="200" height="110" as="geometry">
            <mxRectangle x="10" y="-60" width="130" height="30" as="alternateBounds" />
          </mxGeometry>
        </mxCell>
        <mxCell id="c8v6GoFmHwRA6XCjn_m3-47" value="&lt;div&gt;ID&lt;span style=&quot;white-space: pre;&quot;&gt;&#x9;&lt;/span&gt;&lt;span style=&quot;white-space: pre;&quot;&gt;&#x9;&lt;/span&gt;&lt;span style=&quot;white-space: pre;&quot;&gt;&#x9;&lt;/span&gt;int&lt;span style=&quot;white-space: pre;&quot;&gt;&#x9;&lt;span style=&quot;white-space: pre;&quot;&gt;&#x9;&lt;/span&gt;&lt;span style=&quot;white-space: pre;&quot;&gt;&#x9;&lt;/span&gt;&lt;span style=&quot;white-space: pre;&quot;&gt;&#x9;&lt;/span&gt;pk&lt;/span&gt;&lt;/div&gt;&lt;div&gt;&lt;span style=&quot;white-space: pre;&quot;&gt;&lt;br&gt;&lt;/span&gt;&lt;/div&gt;&lt;div&gt;&lt;br&gt;&lt;/div&gt;&lt;div&gt;&lt;br&gt;&lt;/div&gt;" style="text;strokeColor=none;fillColor=none;spacingLeft=4;spacingRight=4;overflow=hidden;rotatable=0;points=[[0,0.5],[1,0.5]];portConstraint=eastwest;fontSize=12;whiteSpace=wrap;html=1;" vertex="1" parent="c8v6GoFmHwRA6XCjn_m3-46">
          <mxGeometry y="26" width="200" height="24" as="geometry" />
        </mxCell>
        <mxCell id="c8v6GoFmHwRA6XCjn_m3-48" value="&lt;div&gt;Name&lt;span style=&quot;white-space: pre;&quot;&gt;&#x9;&lt;/span&gt;&lt;span style=&quot;white-space: pre;&quot;&gt;&#x9;&lt;/span&gt;varchar(30)&lt;/div&gt;&lt;div&gt;&lt;span style=&quot;white-space: pre;&quot;&gt;&#x9;&lt;/span&gt;&lt;/div&gt;&lt;div&gt;&lt;br&gt;&lt;/div&gt;&lt;div&gt;&lt;br&gt;&lt;/div&gt;" style="text;strokeColor=none;fillColor=none;spacingLeft=4;spacingRight=4;overflow=hidden;rotatable=0;points=[[0,0.5],[1,0.5]];portConstraint=eastwest;fontSize=12;whiteSpace=wrap;html=1;" vertex="1" parent="c8v6GoFmHwRA6XCjn_m3-46">
          <mxGeometry y="50" width="200" height="30" as="geometry" />
        </mxCell>
        <mxCell id="c8v6GoFmHwRA6XCjn_m3-49" value="&lt;div&gt;ParentID&lt;span style=&quot;white-space: pre;&quot;&gt;&#x9;&lt;/span&gt;int?&lt;/div&gt;&lt;div&gt;&lt;br&gt;&lt;/div&gt;" style="text;strokeColor=none;fillColor=none;spacingLeft=4;spacingRight=4;overflow=hidden;rotatable=0;points=[[0,0.5],[1,0.5]];portConstraint=eastwest;fontSize=12;whiteSpace=wrap;html=1;" vertex="1" parent="c8v6GoFmHwRA6XCjn_m3-46">
          <mxGeometry y="80" width="200" height="30" as="geometry" />
        </mxCell>
        <mxCell id="c8v6GoFmHwRA6XCjn_m3-98" value="" style="edgeStyle=orthogonalEdgeStyle;fontSize=12;html=1;endArrow=ERzeroToOne;startArrow=ERzeroToMany;rounded=0;entryX=0;entryY=0.5;entryDx=0;entryDy=0;exitX=1;exitY=0.5;exitDx=0;exitDy=0;endFill=0;startFill=0;" edge="1" parent="c8v6GoFmHwRA6XCjn_m3-46" source="c8v6GoFmHwRA6XCjn_m3-49" target="c8v6GoFmHwRA6XCjn_m3-47">
          <mxGeometry width="100" height="100" relative="1" as="geometry">
            <mxPoint x="-90" y="113" as="sourcePoint" />
            <mxPoint x="-50" y="43" as="targetPoint" />
            <Array as="points">
              <mxPoint x="230" y="95" />
              <mxPoint x="230" y="140" />
              <mxPoint x="-30" y="140" />
              <mxPoint x="-30" y="38" />
            </Array>
          </mxGeometry>
        </mxCell>
        <mxCell id="c8v6GoFmHwRA6XCjn_m3-53" value="User" style="swimlane;fontStyle=0;childLayout=stackLayout;horizontal=1;startSize=26;horizontalStack=0;resizeParent=1;resizeParentMax=0;resizeLast=0;collapsible=1;marginBottom=0;align=center;fontSize=14;" vertex="1" parent="1">
          <mxGeometry x="670" y="-460" width="200" height="200" as="geometry">
            <mxRectangle x="-110" y="80" width="90" height="30" as="alternateBounds" />
          </mxGeometry>
        </mxCell>
        <mxCell id="c8v6GoFmHwRA6XCjn_m3-54" value="&lt;div&gt;ID&lt;span style=&quot;white-space: pre;&quot;&gt;&#x9;&lt;/span&gt;&lt;span style=&quot;white-space: pre;&quot;&gt;&#x9;&lt;/span&gt;&lt;span style=&quot;white-space: pre;&quot;&gt;&#x9;&lt;/span&gt;int&lt;span style=&quot;white-space: pre;&quot;&gt;&#x9;&lt;span style=&quot;white-space: pre;&quot;&gt;&#x9;&lt;/span&gt;&lt;span style=&quot;white-space: pre;&quot;&gt;&#x9;&lt;/span&gt;&lt;span style=&quot;white-space: pre;&quot;&gt;&#x9;&lt;/span&gt;PK&lt;/span&gt;&lt;/div&gt;&lt;div&gt;&lt;br&gt;&lt;/div&gt;&lt;div&gt;&lt;br&gt;&lt;/div&gt;" style="text;strokeColor=none;fillColor=none;spacingLeft=4;spacingRight=4;overflow=hidden;rotatable=0;points=[[0,0.5],[1,0.5]];portConstraint=eastwest;fontSize=12;whiteSpace=wrap;html=1;" vertex="1" parent="c8v6GoFmHwRA6XCjn_m3-53">
          <mxGeometry y="26" width="200" height="24" as="geometry" />
        </mxCell>
        <mxCell id="c8v6GoFmHwRA6XCjn_m3-55" value="Login&lt;span style=&quot;white-space: pre;&quot;&gt;&#x9;&lt;/span&gt;&lt;span style=&quot;white-space: pre;&quot;&gt;&#x9;&lt;/span&gt;varchar(30)&lt;span style=&quot;white-space: pre;&quot;&gt;&#x9;&lt;/span&gt;&lt;div&gt;&lt;br&gt;&lt;/div&gt;&lt;div&gt;&lt;br&gt;&lt;/div&gt;" style="text;strokeColor=none;fillColor=none;spacingLeft=4;spacingRight=4;overflow=hidden;rotatable=0;points=[[0,0.5],[1,0.5]];portConstraint=eastwest;fontSize=12;whiteSpace=wrap;html=1;" vertex="1" parent="c8v6GoFmHwRA6XCjn_m3-53">
          <mxGeometry y="50" width="200" height="30" as="geometry" />
        </mxCell>
        <mxCell id="c8v6GoFmHwRA6XCjn_m3-56" value="&lt;div&gt;Password&lt;span style=&quot;white-space: pre;&quot;&gt;&#x9;varchar(30)&lt;/span&gt;&lt;/div&gt;&lt;div&gt;&lt;br&gt;&lt;/div&gt;" style="text;strokeColor=none;fillColor=none;spacingLeft=4;spacingRight=4;overflow=hidden;rotatable=0;points=[[0,0.5],[1,0.5]];portConstraint=eastwest;fontSize=12;whiteSpace=wrap;html=1;" vertex="1" parent="c8v6GoFmHwRA6XCjn_m3-53">
          <mxGeometry y="80" width="200" height="30" as="geometry" />
        </mxCell>
        <mxCell id="c8v6GoFmHwRA6XCjn_m3-57" value="&lt;div&gt;Type&lt;span style=&quot;white-space: pre;&quot;&gt;&#x9;&lt;/span&gt;&lt;span style=&quot;white-space: pre;&quot;&gt;&#x9;AcType&lt;/span&gt;&lt;/div&gt;&lt;div&gt;&lt;span style=&quot;white-space: pre;&quot;&gt;&lt;br&gt;&lt;/span&gt;&lt;/div&gt;" style="text;strokeColor=none;fillColor=none;spacingLeft=4;spacingRight=4;overflow=hidden;rotatable=0;points=[[0,0.5],[1,0.5]];portConstraint=eastwest;fontSize=12;whiteSpace=wrap;html=1;" vertex="1" parent="c8v6GoFmHwRA6XCjn_m3-53">
          <mxGeometry y="110" width="200" height="30" as="geometry" />
        </mxCell>
        <mxCell id="c8v6GoFmHwRA6XCjn_m3-58" value="IsActive&lt;span style=&quot;white-space: pre;&quot;&gt;&#x9;&lt;/span&gt;&lt;span style=&quot;white-space: pre;&quot;&gt;&#x9;&lt;/span&gt;bool&lt;span style=&quot;white-space: pre;&quot;&gt;&#x9;&lt;/span&gt;" style="text;strokeColor=none;fillColor=none;spacingLeft=4;spacingRight=4;overflow=hidden;rotatable=0;points=[[0,0.5],[1,0.5]];portConstraint=eastwest;fontSize=12;whiteSpace=wrap;html=1;" vertex="1" parent="c8v6GoFmHwRA6XCjn_m3-53">
          <mxGeometry y="140" width="200" height="30" as="geometry" />
        </mxCell>
        <mxCell id="c8v6GoFmHwRA6XCjn_m3-59" value="&lt;div&gt;GroupID&lt;span style=&quot;white-space: pre;&quot;&gt;&#x9;&lt;/span&gt;int?&lt;span style=&quot;white-space: pre;&quot;&gt;&#x9;&lt;span style=&quot;white-space: pre;&quot;&gt;&#x9;&lt;/span&gt;&lt;span style=&quot;white-space: pre;&quot;&gt;&#x9;&lt;/span&gt;&lt;span style=&quot;white-space: pre;&quot;&gt;&#x9;&lt;/span&gt;FK&lt;/span&gt;&lt;/div&gt;&lt;div&gt;&lt;br&gt;&lt;/div&gt;" style="text;strokeColor=none;fillColor=none;spacingLeft=4;spacingRight=4;overflow=hidden;rotatable=0;points=[[0,0.5],[1,0.5]];portConstraint=eastwest;fontSize=12;whiteSpace=wrap;html=1;" vertex="1" parent="c8v6GoFmHwRA6XCjn_m3-53">
          <mxGeometry y="170" width="200" height="30" as="geometry" />
        </mxCell>
        <mxCell id="c8v6GoFmHwRA6XCjn_m3-60" value="BasketPosition" style="swimlane;fontStyle=0;childLayout=stackLayout;horizontal=1;startSize=26;horizontalStack=0;resizeParent=1;resizeParentMax=0;resizeLast=0;collapsible=1;marginBottom=0;align=center;fontSize=14;" vertex="1" parent="1">
          <mxGeometry x="420" y="-490" width="200" height="140" as="geometry">
            <mxRectangle x="-110" y="120" width="90" height="30" as="alternateBounds" />
          </mxGeometry>
        </mxCell>
        <mxCell id="c8v6GoFmHwRA6XCjn_m3-61" value="&lt;div&gt;ID&lt;span style=&quot;white-space: pre;&quot;&gt;&#x9;&lt;/span&gt;&lt;span style=&quot;white-space: pre;&quot;&gt;&#x9;&lt;/span&gt;&lt;span style=&quot;white-space: pre;&quot;&gt;&#x9;&lt;/span&gt;int&lt;span style=&quot;white-space: pre;&quot;&gt;&#x9;&lt;span style=&quot;white-space: pre;&quot;&gt;&#x9;&lt;/span&gt;&lt;span style=&quot;white-space: pre;&quot;&gt;&#x9;&lt;/span&gt;&lt;span style=&quot;white-space: pre;&quot;&gt;&#x9;&lt;/span&gt;PK&lt;/span&gt;&lt;/div&gt;&lt;div&gt;&lt;br&gt;&lt;/div&gt;&lt;div&gt;&lt;br&gt;&lt;/div&gt;" style="text;strokeColor=none;fillColor=none;spacingLeft=4;spacingRight=4;overflow=hidden;rotatable=0;points=[[0,0.5],[1,0.5]];portConstraint=eastwest;fontSize=12;whiteSpace=wrap;html=1;" vertex="1" parent="c8v6GoFmHwRA6XCjn_m3-60">
          <mxGeometry y="26" width="200" height="24" as="geometry" />
        </mxCell>
        <mxCell id="c8v6GoFmHwRA6XCjn_m3-62" value="ProductID&lt;span style=&quot;white-space: pre;&quot;&gt;&#x9;&lt;/span&gt;int&lt;span style=&quot;white-space: pre;&quot;&gt;&#x9;&lt;/span&gt;&lt;span style=&quot;white-space: pre;&quot;&gt;&#x9;&lt;/span&gt;&lt;span style=&quot;white-space: pre;&quot;&gt;&#x9;&lt;/span&gt;&lt;span style=&quot;white-space: pre;&quot;&gt;&#x9;&lt;/span&gt;FK" style="text;strokeColor=none;fillColor=none;spacingLeft=4;spacingRight=4;overflow=hidden;rotatable=0;points=[[0,0.5],[1,0.5]];portConstraint=eastwest;fontSize=12;whiteSpace=wrap;html=1;" vertex="1" parent="c8v6GoFmHwRA6XCjn_m3-60">
          <mxGeometry y="50" width="200" height="30" as="geometry" />
        </mxCell>
        <mxCell id="c8v6GoFmHwRA6XCjn_m3-63" value="&lt;div&gt;UserID&lt;span style=&quot;white-space: pre;&quot;&gt;&#x9;&lt;/span&gt;&lt;span style=&quot;white-space: pre;&quot;&gt;&#x9;&lt;/span&gt;int&lt;span style=&quot;white-space: pre;&quot;&gt;&#x9;&lt;/span&gt;&lt;span style=&quot;white-space: pre;&quot;&gt;&#x9;&lt;/span&gt;&lt;span style=&quot;white-space: pre;&quot;&gt;&#x9;&lt;/span&gt;&lt;span style=&quot;white-space: pre;&quot;&gt;&#x9;&lt;/span&gt;FK&lt;span style=&quot;white-space: pre;&quot;&gt;&#x9;&lt;/span&gt;&lt;/div&gt;&lt;div&gt;&lt;br/&gt;&lt;/div&gt;" style="text;strokeColor=none;fillColor=none;spacingLeft=4;spacingRight=4;overflow=hidden;rotatable=0;points=[[0,0.5],[1,0.5]];portConstraint=eastwest;fontSize=12;whiteSpace=wrap;html=1;" vertex="1" parent="c8v6GoFmHwRA6XCjn_m3-60">
          <mxGeometry y="80" width="200" height="30" as="geometry" />
        </mxCell>
        <mxCell id="c8v6GoFmHwRA6XCjn_m3-64" value="Amount&lt;span style=&quot;white-space: pre;&quot;&gt;&#x9;&lt;/span&gt;&lt;span style=&quot;white-space: pre;&quot;&gt;&#x9;&lt;/span&gt;int" style="text;strokeColor=none;fillColor=none;spacingLeft=4;spacingRight=4;overflow=hidden;rotatable=0;points=[[0,0.5],[1,0.5]];portConstraint=eastwest;fontSize=12;whiteSpace=wrap;html=1;" vertex="1" parent="c8v6GoFmHwRA6XCjn_m3-60">
          <mxGeometry y="110" width="200" height="30" as="geometry" />
        </mxCell>
        <mxCell id="c8v6GoFmHwRA6XCjn_m3-67" value="Order" style="swimlane;fontStyle=0;childLayout=stackLayout;horizontal=1;startSize=26;horizontalStack=0;resizeParent=1;resizeParentMax=0;resizeLast=0;collapsible=1;marginBottom=0;align=center;fontSize=14;" vertex="1" parent="1">
          <mxGeometry x="930" y="-320" width="200" height="110" as="geometry">
            <mxRectangle x="-110" y="160" width="90" height="30" as="alternateBounds" />
          </mxGeometry>
        </mxCell>
        <mxCell id="c8v6GoFmHwRA6XCjn_m3-68" value="&lt;div&gt;ID&lt;span style=&quot;white-space: pre;&quot;&gt;&#x9;&lt;/span&gt;&lt;span style=&quot;white-space: pre;&quot;&gt;&#x9;&lt;/span&gt;&lt;span style=&quot;white-space: pre;&quot;&gt;&#x9;&lt;/span&gt;int&lt;span style=&quot;white-space: pre;&quot;&gt;&#x9;&lt;span style=&quot;white-space: pre;&quot;&gt;&#x9;&lt;/span&gt;&lt;span style=&quot;white-space: pre;&quot;&gt;&#x9;&lt;/span&gt;&lt;span style=&quot;white-space: pre;&quot;&gt;&#x9;&lt;/span&gt;PK&lt;/span&gt;&lt;/div&gt;&lt;div&gt;&lt;br&gt;&lt;/div&gt;&lt;div&gt;&lt;br&gt;&lt;/div&gt;" style="text;strokeColor=none;fillColor=none;spacingLeft=4;spacingRight=4;overflow=hidden;rotatable=0;points=[[0,0.5],[1,0.5]];portConstraint=eastwest;fontSize=12;whiteSpace=wrap;html=1;" vertex="1" parent="c8v6GoFmHwRA6XCjn_m3-67">
          <mxGeometry y="26" width="200" height="24" as="geometry" />
        </mxCell>
        <mxCell id="c8v6GoFmHwRA6XCjn_m3-69" value="UserID&lt;span style=&quot;white-space: pre;&quot;&gt;&#x9;&lt;/span&gt;&lt;span style=&quot;white-space: pre;&quot;&gt;&#x9;&lt;/span&gt;int&lt;span style=&quot;white-space: pre;&quot;&gt;&#x9;&lt;/span&gt;&lt;span style=&quot;white-space: pre;&quot;&gt;&#x9;&lt;/span&gt;&lt;span style=&quot;white-space: pre;&quot;&gt;&#x9;&lt;/span&gt;&lt;span style=&quot;white-space: pre;&quot;&gt;&#x9;&lt;/span&gt;FK" style="text;strokeColor=none;fillColor=none;spacingLeft=4;spacingRight=4;overflow=hidden;rotatable=0;points=[[0,0.5],[1,0.5]];portConstraint=eastwest;fontSize=12;whiteSpace=wrap;html=1;" vertex="1" parent="c8v6GoFmHwRA6XCjn_m3-67">
          <mxGeometry y="50" width="200" height="30" as="geometry" />
        </mxCell>
        <mxCell id="c8v6GoFmHwRA6XCjn_m3-70" value="Date&lt;span style=&quot;white-space: pre;&quot;&gt;&#x9;&lt;/span&gt;&lt;span style=&quot;white-space: pre;&quot;&gt;&#x9;&lt;/span&gt;Datetime" style="text;strokeColor=none;fillColor=none;spacingLeft=4;spacingRight=4;overflow=hidden;rotatable=0;points=[[0,0.5],[1,0.5]];portConstraint=eastwest;fontSize=12;whiteSpace=wrap;html=1;" vertex="1" parent="c8v6GoFmHwRA6XCjn_m3-67">
          <mxGeometry y="80" width="200" height="30" as="geometry" />
        </mxCell>
        <mxCell id="c8v6GoFmHwRA6XCjn_m3-74" value="OrderPosition" style="swimlane;fontStyle=0;childLayout=stackLayout;horizontal=1;startSize=26;horizontalStack=0;resizeParent=1;resizeParentMax=0;resizeLast=0;collapsible=1;marginBottom=0;align=center;fontSize=14;" vertex="1" parent="1">
          <mxGeometry x="940" y="-510" width="200" height="140" as="geometry">
            <mxRectangle x="230" y="290" width="130" height="30" as="alternateBounds" />
          </mxGeometry>
        </mxCell>
        <mxCell id="c8v6GoFmHwRA6XCjn_m3-75" value="&lt;div&gt;ID&lt;span style=&quot;white-space: pre;&quot;&gt;&#x9;&lt;/span&gt;&lt;span style=&quot;white-space: pre;&quot;&gt;&#x9;&lt;/span&gt;&lt;span style=&quot;white-space: pre;&quot;&gt;&#x9;&lt;/span&gt;int&lt;span style=&quot;white-space: pre;&quot;&gt;&#x9;&lt;span style=&quot;white-space: pre;&quot;&gt;&#x9;&lt;/span&gt;&lt;span style=&quot;white-space: pre;&quot;&gt;&#x9;&lt;/span&gt;&lt;span style=&quot;white-space: pre;&quot;&gt;&#x9;&lt;/span&gt;PK&lt;/span&gt;&lt;/div&gt;&lt;div&gt;&lt;span style=&quot;white-space: pre;&quot;&gt;&lt;br&gt;&lt;/span&gt;&lt;/div&gt;&lt;div&gt;&lt;br&gt;&lt;/div&gt;" style="text;strokeColor=none;fillColor=none;spacingLeft=4;spacingRight=4;overflow=hidden;rotatable=0;points=[[0,0.5],[1,0.5]];portConstraint=eastwest;fontSize=12;whiteSpace=wrap;html=1;" vertex="1" parent="c8v6GoFmHwRA6XCjn_m3-74">
          <mxGeometry y="26" width="200" height="24" as="geometry" />
        </mxCell>
        <mxCell id="c8v6GoFmHwRA6XCjn_m3-76" value="&lt;div&gt;OrderID&lt;span style=&quot;white-space: pre;&quot;&gt;&#x9;&lt;/span&gt;&lt;span style=&quot;white-space: pre;&quot;&gt;&#x9;&lt;/span&gt;int&lt;span style=&quot;white-space: pre;&quot;&gt;&#x9;&lt;/span&gt;&lt;span style=&quot;white-space: pre;&quot;&gt;&#x9;&lt;/span&gt;&lt;span style=&quot;white-space: pre;&quot;&gt;&#x9;&lt;/span&gt;&lt;span style=&quot;white-space: pre;&quot;&gt;&#x9;&lt;/span&gt;FK&lt;/div&gt;&lt;div&gt;&lt;br&gt;&lt;/div&gt;" style="text;strokeColor=none;fillColor=none;spacingLeft=4;spacingRight=4;overflow=hidden;rotatable=0;points=[[0,0.5],[1,0.5]];portConstraint=eastwest;fontSize=12;whiteSpace=wrap;html=1;" vertex="1" parent="c8v6GoFmHwRA6XCjn_m3-74">
          <mxGeometry y="50" width="200" height="30" as="geometry" />
        </mxCell>
        <mxCell id="c8v6GoFmHwRA6XCjn_m3-78" value="Amount&lt;span style=&quot;white-space: pre;&quot;&gt;&#x9;&lt;/span&gt;&lt;span style=&quot;white-space: pre;&quot;&gt;&#x9;&lt;/span&gt;int&lt;span style=&quot;white-space: pre;&quot;&gt;&#x9;&lt;/span&gt;&lt;span style=&quot;white-space: pre;&quot;&gt;&#x9;&lt;/span&gt;&lt;span style=&quot;white-space: pre;&quot;&gt;&#x9;&lt;/span&gt;" style="text;strokeColor=none;fillColor=none;spacingLeft=4;spacingRight=4;overflow=hidden;rotatable=0;points=[[0,0.5],[1,0.5]];portConstraint=eastwest;fontSize=12;whiteSpace=wrap;html=1;" vertex="1" parent="c8v6GoFmHwRA6XCjn_m3-74">
          <mxGeometry y="80" width="200" height="30" as="geometry" />
        </mxCell>
        <mxCell id="c8v6GoFmHwRA6XCjn_m3-77" value="&lt;div&gt;Price&lt;span style=&quot;white-space: pre;&quot;&gt;&#x9;&lt;/span&gt;&lt;span style=&quot;white-space: pre;&quot;&gt;&#x9;&lt;/span&gt;money&lt;/div&gt;&lt;div&gt;&lt;br&gt;&lt;/div&gt;" style="text;strokeColor=none;fillColor=none;spacingLeft=4;spacingRight=4;overflow=hidden;rotatable=0;points=[[0,0.5],[1,0.5]];portConstraint=eastwest;fontSize=12;whiteSpace=wrap;html=1;" vertex="1" parent="c8v6GoFmHwRA6XCjn_m3-74">
          <mxGeometry y="110" width="200" height="30" as="geometry" />
        </mxCell>
        <mxCell id="c8v6GoFmHwRA6XCjn_m3-81" value="&lt;&lt;ENUMERATOR&gt;&gt;&#xa;UserGroup" style="swimlane;fontStyle=0;childLayout=stackLayout;horizontal=1;startSize=30;horizontalStack=0;resizeParent=1;resizeParentMax=0;resizeLast=0;collapsible=1;marginBottom=0;align=center;fontSize=14;" vertex="1" parent="1">
          <mxGeometry x="670" y="-250" width="200" height="84" as="geometry">
            <mxRectangle x="-110" y="160" width="90" height="30" as="alternateBounds" />
          </mxGeometry>
        </mxCell>
        <mxCell id="c8v6GoFmHwRA6XCjn_m3-82" value="&lt;div&gt;ID&lt;span style=&quot;white-space: pre;&quot;&gt;&#x9;&lt;/span&gt;&lt;span style=&quot;white-space: pre;&quot;&gt;&#x9;&lt;/span&gt;&lt;span style=&quot;white-space: pre;&quot;&gt;&#x9;&lt;/span&gt;int&lt;span style=&quot;white-space: pre;&quot;&gt;&#x9;&lt;span style=&quot;white-space: pre;&quot;&gt;&#x9;&lt;/span&gt;&lt;span style=&quot;white-space: pre;&quot;&gt;&#x9;&lt;/span&gt;&lt;span style=&quot;white-space: pre;&quot;&gt;&#x9;&lt;/span&gt;PK&lt;/span&gt;&lt;/div&gt;&lt;div&gt;&lt;br&gt;&lt;/div&gt;&lt;div&gt;&lt;br&gt;&lt;/div&gt;" style="text;strokeColor=none;fillColor=none;spacingLeft=4;spacingRight=4;overflow=hidden;rotatable=0;points=[[0,0.5],[1,0.5]];portConstraint=eastwest;fontSize=12;whiteSpace=wrap;html=1;" vertex="1" parent="c8v6GoFmHwRA6XCjn_m3-81">
          <mxGeometry y="30" width="200" height="24" as="geometry" />
        </mxCell>
        <mxCell id="c8v6GoFmHwRA6XCjn_m3-83" value="&lt;div&gt;Name&lt;span style=&quot;white-space: pre;&quot;&gt;&#x9;&lt;/span&gt;&lt;span style=&quot;white-space: pre;&quot;&gt;&#x9;&lt;/span&gt;varchar(30)&lt;/div&gt;&lt;div&gt;&lt;br&gt;&lt;/div&gt;" style="text;strokeColor=none;fillColor=none;spacingLeft=4;spacingRight=4;overflow=hidden;rotatable=0;points=[[0,0.5],[1,0.5]];portConstraint=eastwest;fontSize=12;whiteSpace=wrap;html=1;" vertex="1" parent="c8v6GoFmHwRA6XCjn_m3-81">
          <mxGeometry y="54" width="200" height="30" as="geometry" />
        </mxCell>
        <mxCell id="c8v6GoFmHwRA6XCjn_m3-86" value="" style="edgeStyle=orthogonalEdgeStyle;fontSize=12;html=1;endArrow=ERoneToMany;startArrow=ERzeroToOne;rounded=0;exitX=1;exitY=0.5;exitDx=0;exitDy=0;entryX=1;entryY=0.5;entryDx=0;entryDy=0;" edge="1" parent="1" source="c8v6GoFmHwRA6XCjn_m3-47" target="c8v6GoFmHwRA6XCjn_m3-45">
          <mxGeometry width="100" height="100" relative="1" as="geometry">
            <mxPoint x="510" y="80" as="sourcePoint" />
            <mxPoint x="610" y="-20" as="targetPoint" />
            <Array as="points">
              <mxPoint x="400" y="-282" />
              <mxPoint x="400" y="-375" />
            </Array>
          </mxGeometry>
        </mxCell>
        <mxCell id="c8v6GoFmHwRA6XCjn_m3-88" value="" style="edgeStyle=orthogonalEdgeStyle;fontSize=12;html=1;endArrow=ERoneToMany;startArrow=ERmandOne;rounded=0;exitX=0.995;exitY=0.858;exitDx=0;exitDy=0;exitPerimeter=0;entryX=1.007;entryY=0.644;entryDx=0;entryDy=0;entryPerimeter=0;" edge="1" parent="1" source="c8v6GoFmHwRA6XCjn_m3-82" target="c8v6GoFmHwRA6XCjn_m3-59">
          <mxGeometry width="100" height="100" relative="1" as="geometry">
            <mxPoint x="690" y="-330" as="sourcePoint" />
            <mxPoint x="880" y="-270" as="targetPoint" />
            <Array as="points">
              <mxPoint x="890" y="-199" />
              <mxPoint x="890" y="-271" />
            </Array>
          </mxGeometry>
        </mxCell>
        <mxCell id="c8v6GoFmHwRA6XCjn_m3-100" value="" style="edgeStyle=orthogonalEdgeStyle;fontSize=12;html=1;endArrow=ERoneToMany;startArrow=ERmandOne;rounded=0;exitX=1;exitY=0.5;exitDx=0;exitDy=0;entryX=1;entryY=0.5;entryDx=0;entryDy=0;movable=1;resizable=1;rotatable=1;deletable=1;editable=1;locked=0;connectable=1;" edge="1" parent="1" source="c8v6GoFmHwRA6XCjn_m3-68" target="c8v6GoFmHwRA6XCjn_m3-76">
          <mxGeometry width="100" height="100" relative="1" as="geometry">
            <mxPoint x="1090" y="-370" as="sourcePoint" />
            <mxPoint x="1190" y="-470" as="targetPoint" />
            <Array as="points">
              <mxPoint x="1160" y="-282" />
              <mxPoint x="1160" y="-445" />
            </Array>
          </mxGeometry>
        </mxCell>
        <mxCell id="c8v6GoFmHwRA6XCjn_m3-102" value="" style="edgeStyle=orthogonalEdgeStyle;fontSize=12;html=1;endArrow=ERzeroToMany;startArrow=ERmandOne;rounded=0;entryX=0;entryY=0.5;entryDx=0;entryDy=0;startFill=0;" edge="1" parent="1" source="c8v6GoFmHwRA6XCjn_m3-39" target="c8v6GoFmHwRA6XCjn_m3-62">
          <mxGeometry width="100" height="100" relative="1" as="geometry">
            <mxPoint x="240" y="-350" as="sourcePoint" />
            <mxPoint x="340" y="-450" as="targetPoint" />
          </mxGeometry>
        </mxCell>
        <mxCell id="c8v6GoFmHwRA6XCjn_m3-103" value="" style="edgeStyle=orthogonalEdgeStyle;fontSize=12;html=1;endArrow=ERoneToMany;startArrow=ERzeroToOne;rounded=0;startFill=0;" edge="1" parent="1" source="c8v6GoFmHwRA6XCjn_m3-63" target="c8v6GoFmHwRA6XCjn_m3-54">
          <mxGeometry width="100" height="100" relative="1" as="geometry">
            <mxPoint x="640" y="-500" as="sourcePoint" />
            <mxPoint x="850" y="-480" as="targetPoint" />
          </mxGeometry>
        </mxCell>
        <mxCell id="c8v6GoFmHwRA6XCjn_m3-104" value="" style="edgeStyle=orthogonalEdgeStyle;fontSize=12;html=1;endArrow=ERzeroToMany;startArrow=ERmandOne;rounded=0;exitX=1;exitY=0.5;exitDx=0;exitDy=0;entryX=0;entryY=0.5;entryDx=0;entryDy=0;endFill=0;" edge="1" parent="1" source="c8v6GoFmHwRA6XCjn_m3-54" target="c8v6GoFmHwRA6XCjn_m3-69">
          <mxGeometry width="100" height="100" relative="1" as="geometry">
            <mxPoint x="1060" y="-40" as="sourcePoint" />
            <mxPoint x="1160" y="-140" as="targetPoint" />
            <Array as="points">
              <mxPoint x="910" y="-422" />
              <mxPoint x="910" y="-255" />
            </Array>
          </mxGeometry>
        </mxCell>
      </root>
    </mxGraphModel>
  </diagram>
</mxfile>
